# xmcd
# Track frame offsets:
# 150
# 15379
# 34905
# 52842
# 67170
# 83884
# 101219
# 116544
# 131148
# 148914
# 159945
# 177935
# 196411
# 212222
# 229193
# 243027
# 264751
#
# Disc length: 3720 seconds
# Revision: 0
# Processed by: cddbd v1.5.1PL0 Copyright (c) Steve Scherf et al.
# Submitted via: VisiTrax 2.9.10.228 - For more info visit www.synapsa.com
#
DISCID=eb0e8611
DTITLE=Byrd, Tracy - Country Karaoke Classics  CKC011
DYEAR=1900
DGENRE=Karaoke
TTITLE0=Watermelon Crawl
TTITLE1=Keeper Of The Stars, The
TTITLE2=Just Let Me Be In Love
TTITLE3=Lifestyles Of The Not So Rich and Famous
TTITLE4=Good Way To Get On My Bad Side, A
TTITLE5=Walking To Jerusalem
TTITLE6=Ten Rounds With Jose Cuervo
TTITLE7=Truth About Men, The
TTITLE8=Lately
TTITLE9=Drinkin' Bone
TTITLE10=Pickup Man
TTITLE11=Prop Me Up Beside The Jukebox
TTITLE12=I'm In Love With A Capital U
TTITLE13=Honky Tonk Attitude
TTITLE14=If The Devil Danced (In Empty Pockets)
TTITLE15=John Deere Green
TTITLE16=Third Rock From The Sun
EXTD=
EXTT0=
EXTT1=
EXTT2=
EXTT3=
EXTT4=
EXTT5=
EXTT6=
EXTT7=
EXTT8=
EXTT9=
EXTT10=
EXTT11=
EXTT12=
EXTT13=
EXTT14=
EXTT15=
EXTT16=
PLAYORDER=
